<svg xmlns="http://www.w3.org/2000/svg" width="179" height="35" fill="none" xmlns:v="https://vecta.io/nano"><path d="M132.462 34.999V8.049h-6.498V.09h22.122v7.959h-6.254L141.766 35l-9.304-.001zm-39.398-.045L89.31 22.853c-.31-1.655-.535-2.639 0-4.205 1.084-2.274 2.707-3.188 3.941-5.258.896-1.788.957-5.472-1.684-5.276h-2.374c-.352 0-.478.235-.541.591v26.25h-9.284V5.057C79.331 1.897 80.433.131 83.385.131h8.324c5.598-.129 11.012 1.46 11.749 8.767.408 8.091-5.209 8.027-5.209 11.38l4.594 14.677h-9.778zm12.681-4.011V4.077c.123-2.332 1.273-3.987 3.774-3.987h14v7.959h-7.624l-.494.502v3.77l.494.48h6.93v7.894h-7.094l-.512.502v5.213l.512.364h7.545v8.156h-13.819l-.149.001c-2.458 0-3.617-1.683-3.563-3.989zm51.357 3.988V8.113h-6.618V.09h22.282v7.959h-6.316v26.881h-9.348zm-83.263-.042h-6.91l-3.771-12.103c-.286-1.657-.511-2.638 0-4.209 1.084-2.265 2.703-3.185 3.955-5.255.906-1.765.906-5.275-1.68-5.275h-2.379c-.408.064-.474.349-.53.785V34.89h-9.472V4.387c0-2.595.352-4.32 3.998-4.32h8.53c2.679 0 4.096.241 6.17 1.086.761.309 1.468.736 2.092 1.267 1.638 1.418 3.195 3.71 3.481 6.414.267 5.102-1.863 6.977-3.481 8.478-.948.896-1.727 1.682-1.727 2.902l1.727 5.518 2.867 9.158h-2.869zm-30.798 0l-.798-3.097-.141-.591h-8.241l-.882 3.689h-8.3l7.277-31.006C33.059 1.351 34.354.26 36.921.044c.329-.021.648-.021 1.023-.021l.042-.02c1.759-.023 3.176.153 4.26.962.784.588 1.412 1.478 1.886 2.856l6.724 31.07h-7.814zm-6.123-20.517l-1.684 9.093h5.414l-2.707-13.172-.145-.723-.877 4.802zM16.197 34.826C6.4 34.826.329 29.439 0 18.735v-1.988C0 5.386 6.972-.127 14.822.067h5.392v9.335H15.56c-4.528 0-6.395 2.703-6.395 7.959-.105 3.444.594 7.959 5.943 7.959v-8.946h8.183v12.039c0 2.617-1.153 6.415-6.809 6.415-.094 0-.189 0-.285-.001zM175.665 4.513a2.2 2.2 0 0 1-.826-.874c-.19-.364-.29-.769-.291-1.179-.001-.416.102-.825.3-1.192a2.04 2.04 0 0 1 .826-.873 2.13 2.13 0 0 1 1.1-.305c.388 0 .768.106 1.1.305a2.05 2.05 0 0 1 .826.873 2.54 2.54 0 0 1 .3 1.184 2.52 2.52 0 0 1-.291 1.187 2.2 2.2 0 0 1-.826.874 2.12 2.12 0 0 1-1.109.312 2.13 2.13 0 0 1-1.11-.312h.001zm.23-3.716c-.284.167-.513.411-.662.703-.158.293-.242.62-.243.953s.078.661.234.955.38.535.662.706c.267.165.576.253.891.254a1.7 1.7 0 0 0 .892-.254 1.8 1.8 0 0 0 .661-.706c.158-.294.24-.622.239-.955a2.01 2.01 0 0 0-.243-.954c-.149-.293-.381-.537-.667-.703a1.71 1.71 0 0 0-1.764 0zm1.342 2.93l-.202-.407c-.076-.191-.187-.366-.329-.516-.094-.076-.212-.116-.333-.112h-.127v1.035h-.478V1.214h.478l.756.003c.13.004.257.039.37.102.097.057.173.141.221.241a.71.71 0 0 1 .094.36.69.69 0 0 1-.169.465c-.122.134-.289.22-.47.241.06.021.115.052.164.091.06.059.113.124.16.194.019.023.075.126.174.306l.282.508-.591.001zm-.99-1.428h.197a2.63 2.63 0 0 0 .517-.032c.064-.023.12-.066.159-.121s.059-.128.057-.198-.02-.131-.057-.186a.31.31 0 0 0-.159-.115 2.26 2.26 0 0 0-.517-.036h-.197v.688z" fill="#f1c400"/></svg>